PathFileType	4	(X/Y/Z)	C:\Users\Basilio\Documents\Thesis Gigler\squatting_fais\c3dfiles\041\SJ_pre5\markers_experimental.trc
DataRate	CameraRate	NumFrames	NumMarkers	Units	OrigDataRate	OrigDataStartFrame	OrigNumFrames
200.000000	200.000000	4	62	mm	200.000000	1128	1505
Frame#	Time	FHD			LBHD			RBHD			C7			T10			CLAV			LSHO			LUUPA			LMUPA			LDUPA			LLEP			LMEP			LRAD			LUL			LRFIN			RSHO			RUPA1			RMUPA			RDUPA			RLEP			RMEP			RRAD			RUL			RUFIN			LASI			RASI			USACR			LSACR			RSACR			LTHI1			LTHI2			LTHI3			LTHI4			LLFC			LMFC			LTIB1			LTIB2			LTIB3			LTIB4			LLMAL			LMMAL			LHEE			LMT1			LMT2			LMT5			RTHI			RTHI2			RTHI3			RTHI4			RLFC			RMFC			RTIB1			RTIB2			RTIB3			RTIB4			RLMAL			RMMAL			RHEE			RMT1			RMT2			RMT5			*61			
		X1	Y1	Z1	X2	Y2	Z2	X3	Y3	Z3	X4	Y4	Z4	X5	Y5	Z5	X6	Y6	Z6	X7	Y7	Z7	X8	Y8	Z8	X9	Y9	Z9	X10	Y10	Z10	X11	Y11	Z11	X12	Y12	Z12	X13	Y13	Z13	X14	Y14	Z14	X15	Y15	Z15	X16	Y16	Z16	X17	Y17	Z17	X18	Y18	Z18	X19	Y19	Z19	X20	Y20	Z20	X21	Y21	Z21	X22	Y22	Z22	X23	Y23	Z23	X24	Y24	Z24	X25	Y25	Z25	X26	Y26	Z26	X27	Y27	Z27	X28	Y28	Z28	X29	Y29	Z29	X30	Y30	Z30	X31	Y31	Z31	X32	Y32	Z32	X33	Y33	Z33	X34	Y34	Z34	X35	Y35	Z35	X36	Y36	Z36	X37	Y37	Z37	X38	Y38	Z38	X39	Y39	Z39	X40	Y40	Z40	X41	Y41	Z41	X42	Y42	Z42	X43	Y43	Z43	X44	Y44	Z44	X45	Y45	Z45	X46	Y46	Z46	X47	Y47	Z47	X48	Y48	Z48	X49	Y49	Z49	X50	Y50	Z50	X51	Y51	Z51	X52	Y52	Z52	X53	Y53	Z53	X54	Y54	Z54	X55	Y55	Z55	X56	Y56	Z56	X57	Y57	Z57	X58	Y58	Z58	X59	Y59	Z59	X60	Y60	Z60	X61	Y61	Z61	X62	Y62	Z62	

1129	5.64	-249.8453063964844	1752.740966796875	-963.641784667969	-409.5574951171876	1654.7939453125	-1043.531616210938	-397.6953735351564	1665.86083984375	-891.309020996094	-439.6826782226564	1522.624755859375	-977.7210693359377	-475.6294250488282	1207.09521484375	-971.5903930664065	-278.5795898437501	1463.108520507813	-972.6188964843752	-347.9766235351563	1515.550659179688	-1146.588623046875	-404.3411865234376	1385.893188476563	-1288.33740234375	-386.2571716308595	1339.612548828125	-1285.84033203125	-429.2207946777345	1335.524536132813	-1329.77783203125	-443.2855834960939	1289.104858398438	-1353.611938476563	-505.8190917968751	1256.06005859375	-1293.9296875	-376.6993713378907	1097.021606445313	-1176.903198242188	-363.3074340820313	1052.542602539063	-1236.21044921875	-333.2803649902344	1071.02880859375	-1135.253784179688	-342.8452453613282	1521.289794921875	-805.1760864257815	-424.3840637207032	1393.057495117188	-644.3960571289064	-386.4437255859376	1358.943359375	-647.0072631835939	-417.2987060546876	1333.42236328125	-605.8520507812501	-419.564178466797	1286.3544921875	-585.6806640625001	-493.5180664062501	1265.678344726563	-640.8760986328126	-396.6184082031251	1091.185302734375	-754.0175781250001	-354.4895019531251	1074.620361328125	-799.5545654296877	-371.3215942382813	1048.510986328125	-695.4255981445314	-304.1221923828126	1010.779541015625	-1070.1044921875	-318.9798889160157	1007.596557617188	-857.1262817382815	-486.8675231933595	1095.79248046875	-973.5767822265627	-502.1408081054689	1071.186157226563	-1001.466979980469	-508.9964599609376	1070.72802734375	-947.7192993164065	-435.2508544921876	816.381286621094	-1170.086669921875	-397.3584289550782	741.0227661132814	-1180.349365234375	-349.4849853515626	745.3939819335939	-1173.252075195313	-423.1486816406251	685.5668334960939	-1173.685791015625	-395.4348449707032	509.3780517578126	-1187.3603515625	-377.6266479492188	474.3653259277345	-1075.903686523438	-381.9059753417969	310.7529602050782	-1164.030029296875	-439.5319824218751	282.9985351562501	-1227.683837890625	-401.8792114257814	271.6163635253907	-1205.3671875	-411.182586669922	191.0239410400391	-1183.403076171875	-484.612274169922	104.7406311035157	-1232.475341796875	-440.2814025878907	103.8951492309571	-1152.053100585938	-541.1316528320314	54.42944717407228	-1196.530151367188	-322.5706481933594	60.03654861450197	-1181.95361328125	-318.5581665039063	59.69232177734376	-1226.9609375	-359.7783813476563	34.91769027709962	-1281.160034179688	-433.4513244628907	753.6616210937501	-773.3025512695315	-391.6127319335939	702.9921264648439	-762.1604614257814	-358.6920166015626	706.7961425781251	-764.5917968750001	-411.4585571289064	621.1012573242189	-772.7528076171877	-399.369842529297	498.5593261718751	-761.2911376953126	-375.2477111816407	470.394744873047	-874.0545654296877	-381.3213806152344	328.8224487304688	-752.2392578125001	-473.0830688476564	263.8452148437501	-736.1837768554689	-426.8794250488282	256.3706054687501	-733.8528442382814	-409.2558898925782	203.6837615966797	-757.1955566406251	-481.405975341797	96.18800354003909	-736.6661376953126	-444.7298889160157	102.2310791015625	-814.3693847656252	-533.2760009765626	50.64763259887697	-788.2888183593752	-315.6889038085938	52.80962371826173	-769.571472167969	-320.8389282226563	58.80074310302736	-717.3823242187501	-370.1418762207032	37.08400344848634	-673.7808227539064	-4216.917968750001	853.1823730468752	-3944.676025390626	
1130	5.645	-250.5203094482422	1753.576171875	-964.2612304687502	-410.2477416992189	1655.335205078125	-1043.816528320313	-398.2490539550782	1666.568237304688	-891.5589599609377	-440.0556945800782	1523.063720703125	-977.8193359375002	-475.4844665527345	1207.49853515625	-971.6633911132815	-278.7363891601563	1463.850341796875	-972.6467285156252	-348.5315551757813	1515.9599609375	-1146.75146484375	-405.1104736328126	1386.192138671875	-1288.329467773438	-386.863250732422	1339.911254882813	-1285.863403320313	-429.9863586425782	1335.76123046875	-1329.70556640625	-443.8940734863282	1289.260498046875	-1353.3662109375	-506.3451232910157	1256.235717773438	-1293.652954101563	-376.6623840332032	1097.303833007813	-1176.968627929688	-363.2776794433594	1052.8779296875	-1236.289306640625	-333.1364440917969	1071.326416015625	-1135.28564453125	-343.2355651855469	1521.921875	-805.2617187500002	-424.674041748047	1393.473754882813	-644.5878906250001	-386.3632812500001	1359.675170898438	-647.2659301757814	-417.3192138671876	1334.017944335938	-605.9937133789064	-419.4107360839845	1287.028442382813	-585.5721435546876	-493.1625976562501	1265.7900390625	-641.0911254882814	-396.0934448242189	1091.511962890625	-754.0270385742189	-354.1939392089844	1074.991088867188	-799.5075683593752	-370.9259338378907	1048.985717773438	-695.3523559570314	-303.8431091308594	1011.196594238281	-1070.191528320313	-318.5621032714844	1008.0009765625	-857.091247558594	-486.4937744140626	1096.338256835938	-973.5250244140627	-501.9273071289064	1071.88037109375	-1001.377380371094	-508.896697998047	1071.202026367188	-947.6256103515627	-435.6875305175782	817.3481445312502	-1170.078979492188	-398.4760131835939	741.8423461914064	-1180.521118164063	-350.3003234863282	745.4910888671876	-1173.004760742188	-424.6088867187501	686.3824462890626	-1173.794921875	-397.4081420898439	509.8159790039064	-1186.988891601563	-380.1382446289063	474.8054199218751	-1075.178466796875	-383.5766601562501	311.4210815429688	-1163.663208007813	-440.8882141113282	282.9689331054688	-1227.716430664063	-403.3374633789064	272.2194213867188	-1205.135986328125	-411.7138671875001	191.0518341064453	-1183.470825195313	-484.7645568847657	104.6575622558594	-1232.473022460938	-440.3805236816407	103.9265975952149	-1152.141235351563	-541.1915283203126	54.4026565551758	-1196.578125	-322.5589294433594	60.05029678344728	-1182.00244140625	-318.6298217773438	59.64036560058595	-1226.971923828125	-359.8497619628907	34.85280990600587	-1281.120483398438	-434.4024963378907	754.6637573242189	-773.4738769531252	-393.1953125000001	703.7170410156251	-762.3039550781251	-359.9702148437501	707.1343994140626	-764.8115234375001	-413.251922607422	621.6524658203126	-773.104187011719	-402.1347961425782	499.2763061523439	-761.3983764648439	-377.6457214355469	470.7986755371095	-874.4112548828127	-383.1132507324219	329.4304809570313	-752.1984863281251	-474.398406982422	263.9333496093751	-736.3878173828126	-428.1937561035157	256.6542968750001	-733.8586425781251	-410.1981811523439	204.2476196289063	-757.1385498046876	-481.6963806152345	96.23862457275393	-736.5825195312501	-444.718231201172	102.3160171508789	-814.5106201171877	-533.2988281250001	50.61650466918947	-788.2971801757815	-315.6594848632813	52.81922531127931	-769.5173950195315	-320.8644104003907	58.76498413085939	-717.4621582031251	-370.1379699707032	37.07625198364259	-673.7697143554689	-4217.085449218751	853.2266235351565	-3944.657226562501	
1131	5.65	-251.1610565185547	1754.288208007813	-964.9487915039065	-410.8163452148439	1655.738525390625	-1044.109008789063	-398.5477905273439	1667.3740234375	-891.8811035156252	-440.5034790039064	1523.447631835938	-977.9395141601565	-475.3333129882814	1207.881591796875	-971.6745605468752	-279.1465454101563	1464.276000976563	-972.9343872070315	-349.1871948242188	1516.345336914063	-1146.850708007813	-405.8391113281251	1386.455810546875	-1288.247436523438	-387.5656738281251	1340.2060546875	-1285.79541015625	-430.6435546875001	1335.966918945313	-1329.549072265625	-444.743377685547	1289.448486328125	-1353.168212890625	-506.8743896484376	1256.319580078125	-1293.38623046875	-376.6509094238282	1097.568359375	-1177.039794921875	-363.2308959960938	1053.175659179688	-1236.436401367188	-333.0405578613282	1071.564208984375	-1135.377197265625	-343.5539550781251	1522.443359375	-805.508728027344	-424.8675231933595	1393.836303710938	-644.8151855468751	-386.4431152343751	1360.258544921875	-647.5985107421876	-417.3562927246095	1334.397827148438	-606.1197509765626	-419.3583984375001	1287.392822265625	-585.6281738281251	-492.9497375488282	1265.9833984375	-641.2000732421876	-395.2711486816407	1091.918090820313	-753.7717895507814	-354.2011108398438	1075.23974609375	-799.7160644531252	-370.3076171875001	1049.34912109375	-695.3896484375001	-303.6971740722657	1011.497985839844	-1070.303100585938	-318.3763122558594	1008.341552734375	-857.053894042969	-486.2507934570314	1096.86083984375	-973.4827880859377	-501.6063537597657	1072.363525390625	-1001.352966308594	-508.8843994140626	1071.655639648438	-947.7996215820315	-436.3079833984376	818.2806396484377	-1170.019897460938	-399.190643310547	742.0708007812501	-1180.34765625	-351.1436462402344	745.7813110351564	-1172.824584960938	-425.8296203613282	686.9588623046876	-1173.920166015625	-399.9734802246095	510.2235717773439	-1186.866455078125	-382.2669372558594	475.092254638672	-1074.982055664063	-384.7888183593751	311.6959228515626	-1163.532104492188	-441.5967102050782	283.3664245605469	-1227.557861328125	-404.0468750000001	272.8365173339844	-1205.148315429688	-412.5087890625001	191.3955535888672	-1183.206665039063	-484.6174316406251	104.50244140625	-1232.36767578125	-440.5364685058595	103.9791641235352	-1152.2080078125	-541.2216186523439	54.34117126464845	-1196.638916015625	-322.1253967285157	60.38684082031251	-1181.906127929688	-318.6329650878907	59.66318130493165	-1227.013793945313	-359.8891601562501	34.88896560668946	-1281.210327148438	-435.630340576172	755.6162109375001	-773.428405761719	-394.4209289550782	704.3045043945314	-762.3905029296876	-361.2101135253907	707.7537841796876	-764.9475097656251	-414.995574951172	622.6551513671876	-773.2116699218752	-404.537567138672	499.6607360839845	-761.8211059570314	-380.1826171875001	471.2476196289064	-874.7390747070315	-384.9558410644532	330.0332336425782	-752.2561035156251	-475.654510498047	264.1245422363282	-736.6721801757814	-429.4100952148439	256.9962768554688	-733.8507690429689	-411.2466125488282	204.6952667236329	-757.1137084960939	-481.8667602539064	96.23538970947268	-736.5369262695314	-444.8393859863282	102.3185043334961	-814.4208984375002	-533.3394775390626	50.5770835876465	-788.2988281250002	-315.7235412597657	52.82514572143556	-769.5297851562502	-320.9066162109376	58.71004867553712	-717.4379272460939	-370.1461486816407	37.04935455322266	-673.7545166015626	-4217.107910156251	853.2114868164065	-3944.652587890626	
1132	5.655	-251.7257232666016	1754.781860351563	-965.6563720703127	-411.369354248047	1656.101440429688	-1044.39892578125	-399.042205810547	1668.01806640625	-892.2148437500002	-440.8604736328126	1523.683349609375	-978.0758056640627	-475.2024841308595	1208.1884765625	-971.6819458007815	-279.5401611328126	1464.807495117188	-973.0689697265627	-349.7800292968751	1516.762939453125	-1146.945922851563	-406.484344482422	1386.667602539063	-1288.239135742188	-388.2123107910157	1340.348510742188	-1285.671508789063	-431.4911499023439	1336.1298828125	-1329.399169921875	-445.5661010742189	1289.61083984375	-1352.9599609375	-507.4629821777345	1256.403686523438	-1292.952026367188	-376.6463317871094	1097.83740234375	-1177.091918945313	-363.1205444335938	1053.464233398438	-1236.515625	-332.8826599121094	1071.883422851563	-1135.615844726563	-343.8601379394532	1522.912719726563	-805.673034667969	-425.1615600585939	1394.159912109375	-644.9781494140626	-386.594940185547	1360.646362304688	-647.6497192382814	-417.4766540527345	1334.875854492188	-606.2169799804689	-419.2359924316407	1287.823364257813	-585.7520141601564	-492.7128295898439	1266.133178710938	-641.2756958007814	-394.8137207031251	1092.255249023438	-753.7221679687501	-353.8780517578126	1075.483154296875	-799.7280883789065	-369.7012939453126	1049.720336914063	-695.3281860351564	-303.4843139648438	1011.729553222656	-1070.441528320313	-318.3336486816407	1008.497253417969	-856.9072875976565	-486.0159606933595	1097.32861328125	-973.5129394531252	-501.3443908691407	1072.785278320313	-1001.254821777344	-508.4586486816407	1072.251586914063	-947.6610107421877	-436.8259887695314	818.9018554687502	-1170.110595703125	-400.0063476562501	742.5395507812501	-1180.410888671875	-351.9667358398438	746.0072631835939	-1172.682250976563	-426.9588928222657	687.5955810546876	-1173.979370117188	-402.1348571777345	510.6046752929689	-1186.50439453125	-384.7592773437501	475.2565917968751	-1074.656005859375	-386.135467529297	312.2579650878907	-1163.452270507813	-442.816619873047	283.4764404296876	-1227.336669921875	-405.2230224609376	273.1006164550782	-1205.108276367188	-413.201873779297	191.9315948486328	-1182.959228515625	-484.7503662109376	104.4632720947266	-1232.372436523438	-440.7090454101564	104.0662307739258	-1152.352905273438	-541.2517700195314	54.33918380737306	-1196.680908203125	-322.1518554687501	60.38323211669923	-1181.919067382813	-318.6675720214844	59.6139488220215	-1227.029296875	-359.9564514160157	34.83436965942384	-1281.226928710938	-436.5834960937501	756.3758544921876	-773.5921630859377	-395.9088134765626	704.8773803710939	-762.5081787109376	-362.7803344726563	708.2424316406251	-765.0481567382814	-417.1063537597657	623.3969116210939	-773.4434814453127	-406.8998107910157	500.0236816406251	-762.0562133789064	-382.5150146484376	471.6029663085939	-875.078308105469	-386.4080200195314	330.5672302246094	-752.6156005859376	-477.0801086425782	264.1210327148438	-736.6697387695314	-430.6949157714845	257.3303833007813	-733.9084472656251	-412.092742919922	205.0048065185547	-757.0574951171876	-481.995819091797	96.18001556396487	-736.5729980468751	-445.0740966796876	102.3718643188477	-814.2888793945315	-533.3809814453126	50.56845855712892	-788.2307739257815	-315.7506408691407	52.80050659179689	-769.493347167969	-320.8689575195313	58.73398971557619	-717.4490966796876	-370.1346435546876	37.04222106933594	-673.7152709960939	-4216.712402343751	853.1130371093752	-3944.637939453126	
